<svg
  viewBox="0 0 32 32"
  xmlns="http://www.w3.org/2000/svg"
  fill="none"
>
  {/* Center droplet (main) */}
  <path
    d="M16 4C16 4 11 11 11 15C11 18.866 14.134 22 18 22C21.866 22 25 18.866 25 15C25 11 16 4 16 4Z"
    fill="#1e40af"
  />

  {/* Left droplet */}
  <path
    d="M7 14C7 14 5 18 5 20C5 22.209 6.791 24 9 24C11.209 24 13 22.209 13 20C13 18 7 14 7 14Z"
    fill="#1e40af"
    opacity="0.85"
  />

  {/* Right droplet */}
  <path
    d="M25 14C25 14 23 18 23 20C23 22.209 24.791 24 27 24C29.209 24 31 22.209 31 20C31 18 25 14 25 14Z"
    fill="#1e40af"
    opacity="0.85"
  />
</svg>